<?xml version="1.0" encoding="UTF-8"?>
<svg width="20px" height="22px" viewBox="0 0 20 22" version="1.1" xmlns="http://www.w3.org/2000/svg" xmlns:xlink="http://www.w3.org/1999/xlink">
    <!-- Generator: Sketch 53 (72520) - https://sketchapp.com -->
    <title>Fill 1</title>
    <desc>Created with Sketch.</desc>
    <g id="Page-1" stroke="none" stroke-width="1" fill="none" fill-rule="evenodd">
        <g id="Listing-Copy-2" transform="translate(-861.000000, -270.000000)" fill="#2A2C2B">
            <g id="Group-2" transform="translate(95.000000, 105.000000)">
                <g id="Group-Copy-4" transform="translate(464.000000, 140.000000)">
                    <path d="M316.999811,36.3927351 L320.461487,36.3927351 L320.461487,32.8571951 L316.999811,32.8571951 L316.999811,36.3927351 Z M316.999811,41.1071467 L320.461487,41.1071467 L320.461487,37.1788502 L316.999811,37.1788502 L316.999811,41.1071467 Z M316.999811,45.4285008 L320.461487,45.4285008 L320.461487,41.8927028 L316.999811,41.8927028 L316.999811,45.4285008 Z M315.960537,30.7762389 C315.884466,30.698453 315.846578,30.6065633 315.846578,30.5000537 L315.846578,26.9644708 C315.846578,26.8580902 315.884466,26.7659425 315.960537,26.6882856 C316.036651,26.6104997 316.126782,26.5716712 316.231101,26.5716712 L317.000147,26.5716712 C317.104466,26.5716712 317.194514,26.6104997 317.270711,26.6882856 C317.346824,26.7659855 317.38467,26.8580902 317.38467,26.9644708 L317.38467,30.5000537 C317.38467,30.6066063 317.346656,30.698496 317.270711,30.7762389 C317.19464,30.8540248 317.104466,30.8928533 317.000147,30.8928533 L316.231101,30.8928533 C316.126824,30.8928963 316.036356,30.8540248 315.960537,30.7762389 L315.960537,30.7762389 Z M312.38486,36.3927351 L316.231101,36.3927351 L316.231101,32.8571951 L312.38486,32.8571951 L312.38486,36.3927351 Z M312.38486,41.1071467 L316.231101,41.1071467 L316.231101,37.1788502 L312.38486,37.1788502 L312.38486,41.1071467 Z M312.38486,45.4285008 L316.231101,45.4285008 L316.231101,41.8927028 L312.38486,41.8927028 L312.38486,45.4285008 Z M307.769194,36.3927351 L311.615477,36.3927351 L311.615477,32.8571951 L307.769194,32.8571951 L307.769194,36.3927351 Z M307.769194,41.1071467 L311.615477,41.1071467 L311.615477,37.1788502 L307.769194,37.1788502 L307.769194,41.1071467 Z M307.769194,45.4285008 L311.615477,45.4285008 L311.615477,41.8927028 L307.769194,41.8927028 L307.769194,45.4285008 Z M306.729752,30.7762389 C306.653597,30.698453 306.615582,30.6065633 306.615582,30.5000537 L306.615582,26.9644708 C306.615582,26.8580902 306.653597,26.7659425 306.729752,26.6882856 C306.805907,26.6104997 306.895871,26.5716712 307.000147,26.5716712 L307.76932,26.5716712 C307.87347,26.5716712 307.963686,26.6104997 308.039715,26.6882856 C308.115871,26.7659855 308.153969,26.8580902 308.153969,26.9644708 L308.153969,30.5000537 C308.153969,30.6066063 308.115702,30.698496 308.039715,30.7762389 C307.963644,30.8540248 307.873597,30.8928533 307.76932,30.8928533 L307.000147,30.8928533 C306.895997,30.8928963 306.805907,30.8540248 306.729752,30.7762389 L306.729752,30.7762389 Z M303.538555,36.3927351 L307.000021,36.3927351 L307.000021,32.8571951 L303.538555,32.8571951 L303.538555,36.3927351 Z M303.538555,41.1071467 L307.000021,41.1071467 L307.000021,37.1788502 L303.538555,37.1788502 L303.538555,41.1071467 Z M303.538555,45.4285008 L307.000021,45.4285008 L307.000021,41.8927028 L303.538555,41.8927028 L303.538555,45.4285008 Z M321.543447,28.609456 C321.239289,28.2984413 320.878425,28.1429124 320.461781,28.1429124 L318.923478,28.1429124 L318.923478,26.9642988 C318.923478,26.4242263 318.735006,25.9617677 318.358439,25.577095 C317.981662,25.1924223 317.529151,25 317.000147,25 L316.231101,25 C315.70214,25 315.24946,25.1924223 314.872851,25.577138 C314.496116,25.9617677 314.307812,26.4242693 314.307812,26.9643418 L314.307812,28.1429554 L309.692609,28.1429554 L309.692609,26.9643418 C309.692609,26.4242693 309.50422,25.9618107 309.12757,25.577138 C308.751003,25.1924223 308.298281,25 307.76932,25 L307.000147,25 C306.471312,25 306.018548,25.1924223 305.641898,25.577138 C305.265331,25.9617677 305.0769,26.4242693 305.0769,26.9643418 L305.0769,28.1429554 L303.538555,28.1429554 C303.121785,28.1429554 302.761258,28.2984843 302.456763,28.609499 C302.152268,28.9204706 302,29.2888895 302,29.7144546 L302,45.4287158 C302,45.8539799 302.152268,46.2223128 302.456763,46.5334995 C302.761216,46.8444282 303.121743,47 303.538555,47 L320.461487,47 C320.878131,47 321.239037,46.8444712 321.543153,46.5334995 C321.847689,46.2224418 322,45.8539369 322,45.4287158 L322,29.7144116 C321.999958,29.2887175 321.847816,28.9204706 321.543447,28.609456 L321.543447,28.609456 Z" id="Fill-1"></path>
                </g>
            </g>
        </g>
    </g>
</svg>