<?xml version="1.0" encoding="UTF-8"?>
<svg width="20px" height="22px" viewBox="0 0 20 22" version="1.1" xmlns="http://www.w3.org/2000/svg" xmlns:xlink="http://www.w3.org/1999/xlink">
    <!-- Generator: Sketch 53 (72520) - https://sketchapp.com -->
    <title>Group 12</title>
    <desc>Created with Sketch.</desc>
    <defs>
        <polygon id="path-1" points="0 0.00857666667 20 0.00857666667 20 20.5 0 20.5"></polygon>
        <polygon id="path-3" points="0.0266339869 0.0045 7.43486928 0.0045 7.43486928 6.56935667 0.0266339869 6.56935667"></polygon>
        <polygon id="path-5" points="0.0160915033 0.0045 7.42396732 0.0045 7.42396732 6.56939 0.0160915033 6.56939"></polygon>
    </defs>
    <g id="Page-1" stroke="none" stroke-width="1" fill="none" fill-rule="evenodd">
        <g id="Listing-Copy-2" transform="translate(-1280.000000, -270.000000)">
            <g id="Group-2" transform="translate(95.000000, 105.000000)">
                <g id="Group-Copy-6" transform="translate(883.000000, 140.000000)">
                    <g id="Group-12" transform="translate(302.000000, 25.000000)">
                        <path d="M11.4072614,12.6881467 L13.7267712,12.6881467 C14.2598431,12.6881467 14.6919346,12.2474133 14.6919346,11.7037133 C14.6919346,11.1599467 14.2598431,10.71888 13.7267712,10.71888 L11.4069346,10.71888 C11.0994183,10.2626467 10.5846471,9.96201333 9.99967974,9.96201333 C9.99000654,9.96201333 9.98203268,9.96451333 9.97268627,9.96521333 L7.85902614,6.93061333 C7.55010458,6.48708 6.94745752,6.38301333 6.51298039,6.69808 C6.07850327,7.01351333 5.97677124,7.62784667 6.28536601,8.07104667 L8.40111765,11.1084467 C8.33435294,11.2947467 8.2921634,11.4934133 8.2921634,11.70338 C8.2921634,12.66558 9.05631373,13.4447133 9.99935294,13.4447133 C10.5846144,13.4450133 11.0993856,13.1444133 11.4072614,12.6881467" id="Fill-1" fill="#2A2C2B"></path>
                        <g id="Group-5" transform="translate(0.000000, 1.495500)">
                            <mask id="mask-2" fill="white">
                                <use xlink:href="#path-1"></use>
                            </mask>
                            <g id="Clip-4"></g>
                            <path d="M9.99964052,16.2081433 C9.64437908,16.2081433 9.35653595,16.50241 9.35653595,16.8647767 L9.35653595,17.7490433 C5.77506536,17.4332433 2.91624183,14.51721 2.60696078,10.8644433 L3.47388889,10.8644433 C3.82918301,10.8644433 4.11767974,10.5701767 4.11767974,10.2081767 C4.11767974,9.84581 3.82915033,9.55191 3.47388889,9.55191 L2.60696078,9.55191 C2.91624183,5.89911 5.77506536,2.98277667 9.35653595,2.66767667 L9.35653595,3.55227667 C9.35653595,3.91467667 9.64437908,4.20821 9.99964052,4.20821 C10.3549346,4.20821 10.6430719,3.91467667 10.6430719,3.55227667 L10.6430719,2.66767667 C14.2245752,2.98277667 17.0830065,5.89911 17.3926797,9.55191 L16.5253922,9.55191 C16.170098,9.55191 15.8819608,9.84581 15.8819608,10.2081767 C15.8819608,10.5701767 16.170098,10.8644433 16.5253922,10.8644433 L17.3926797,10.8644433 C17.083366,14.51721 14.224902,17.4332433 10.6434314,17.7490433 L10.6434314,16.8651767 C10.6434314,16.50241 10.3552614,16.2081433 9.99964052,16.2081433 L9.99964052,16.2081433 Z M17.1307843,17.35351 C18.9037255,15.5133767 20,12.99221 20,10.20821 C20,4.57484333 15.5228758,0.00857666667 10,0.00857666667 C4.47712418,0.00857666667 0,4.57454333 0,10.20821 C0,12.9925767 1.09663399,15.5133767 2.86954248,17.35391 L1.96490196,18.2762767 C1.46607843,18.78511 1.46607843,19.6093433 1.96457516,20.1181767 C2.21366013,20.37261 2.54091503,20.4999767 2.86745098,20.4999767 C3.19398693,20.4999767 3.52094771,20.37261 3.77,20.1185433 L4.8974183,18.9689433 C6.39222222,19.8771767 8.13333333,20.4082433 10,20.4082433 C11.8666667,20.4082433 13.6077778,19.87721 15.103268,18.9685767 L16.2306536,20.1185767 C16.480098,20.3726433 16.806634,20.50001 17.1332026,20.50001 C17.4597712,20.50001 17.7870261,20.3726433 18.0361111,20.11821 C18.5346078,19.6093767 18.5346078,18.7851433 18.0357516,18.27631 L17.1307843,17.35351 Z" id="Fill-3" fill="#2A2C2B" mask="url(#mask-2)"></path>
                        </g>
                        <g id="Group-8" transform="translate(0.000000, 0.028833)">
                            <mask id="mask-4" fill="white">
                                <use xlink:href="#path-3"></use>
                            </mask>
                            <g id="Clip-7"></g>
                            <path d="M7.43486928,0.93179 C6.66343137,0.351723333 5.7120915,0.00449 4.6801634,0.00449 C2.11019608,0.00449 0.0266339869,2.12975667 0.0266339869,4.75109 C0.0266339869,5.39542333 0.153594771,6.00939 0.381928105,6.56935667 C1.81062092,3.78039 4.36882353,1.69399 7.43486928,0.93179" id="Fill-6" fill="#2A2C2B" mask="url(#mask-4)"></path>
                        </g>
                        <g id="Group-11" transform="translate(12.549020, 0.028833)">
                            <mask id="mask-6" fill="white">
                                <use xlink:href="#path-5"></use>
                            </mask>
                            <g id="Clip-10"></g>
                            <path d="M7.06870588,6.56939 C7.29697386,6.00905667 7.42396732,5.39509 7.42396732,4.75112333 C7.4243268,2.12975667 5.34076471,0.00449 2.77076471,0.00449 C1.73818301,0.00449 0.787529412,0.351723333 0.0160915033,0.932523333 C3.08177778,1.69432333 5.63998039,3.78112333 7.06870588,6.56939" id="Fill-9" fill="#2A2C2B" mask="url(#mask-6)"></path>
                        </g>
                    </g>
                </g>
            </g>
        </g>
    </g>
</svg>